<svg width="30" height="30" viewBox="0 0 30 30" fill="none" xmlns="http://www.w3.org/2000/svg">
<path d="M17.2447 27.9906L15.7583 29.5157C15.1289 30.1614 14.1111 30.1614 13.4885 29.5157L0.472046 16.1678C-0.157348 15.5221 -0.157348 14.4779 0.472046 13.839L13.4885 0.484314C14.1178 -0.161438 15.1356 -0.161438 15.7583 0.484314L17.2447 2.00939C17.8808 2.66201 17.8674 3.72681 17.2179 4.3657L9.14965 12.2521H28.393C29.2836 12.2521 30 12.9872 30 13.9008V16.0992C30 17.0128 29.2836 17.7479 28.393 17.7479H9.14965L17.2179 25.6343C17.8741 26.2732 17.8875 27.338 17.2447 27.9906Z" fill="#FF6F00"/>
</svg>
