<svg width="24" height="24" viewBox="0 0 24 24" fill="none" xmlns="http://www.w3.org/2000/svg">
<path d="M19.2297 0.79385L8.31111 11.7283C7.89409 12.1437 7.56348 12.6377 7.33843 13.1819C7.11338 13.7261 6.99836 14.3096 7.00002 14.8987V16.1031C7.00002 16.341 7.09437 16.5691 7.26232 16.7373C7.43027 16.9055 7.65806 17 7.89557 17H9.09831C9.68648 17.0016 10.2691 16.8865 10.8125 16.6611C11.356 16.4357 11.8493 16.1046 12.2641 15.687L23.1827 4.75256C23.7061 4.22716 24 3.51533 24 2.7732C24 2.03108 23.7061 1.31925 23.1827 0.79385C22.6505 0.284342 21.9425 0 21.2062 0C20.4699 0 19.762 0.284342 19.2297 0.79385ZM21.9164 3.48441L10.9978 14.4188C10.4928 14.9215 9.81028 15.2044 9.09831 15.2063H8.79113V14.8987C8.793 14.1857 9.07553 13.5021 9.57743 12.9964L20.4961 2.062C20.6873 1.879 20.9417 1.77688 21.2062 1.77688C21.4708 1.77688 21.7251 1.879 21.9164 2.062C22.1044 2.2508 22.21 2.50656 22.21 2.7732C22.21 3.03985 22.1044 3.29561 21.9164 3.48441Z" fill="#A6A6A6"/>
<path d="M13 1.2002C13 1.86304 12.4627 2.40039 11.7998 2.40039H5C3.56406 2.40039 2.40039 3.56406 2.40039 5V19C2.40039 20.4359 3.56406 21.5996 5 21.5996H19C20.4359 21.5996 21.5996 20.4359 21.5996 19V12.2002C21.5996 11.5373 22.137 11 22.7998 11C23.4627 11 24 11.5373 24 12.2002V19C24 21.7614 21.7614 24 19 24H5L4.74316 23.9932C2.10111 23.8595 0 21.6753 0 19V5C0 2.32472 2.10111 0.140528 4.74316 0.00683594L5 0H11.7998C12.4627 0 13 0.537346 13 1.2002Z" fill="#A6A6A6"/>
</svg>
