<svg width="20" height="18" viewBox="0 0 20 18" fill="none" xmlns="http://www.w3.org/2000/svg">
<path d="M17 6C16.1667 6 15.4583 5.70833 14.875 5.125C14.2917 4.54167 14 3.83333 14 3C14 2.16667 14.2917 1.45833 14.875 0.875C15.4583 0.291667 16.1667 0 17 0C17.8333 0 18.5417 0.291667 19.125 0.875C19.7083 1.45833 20 2.16667 20 3C20 3.83333 19.7083 4.54167 19.125 5.125C18.5417 5.70833 17.8333 6 17 6ZM2 18C1.45 18 0.979167 17.8042 0.5875 17.4125C0.195833 17.0208 0 16.55 0 16V4C0 3.45 0.195833 2.97917 0.5875 2.5875C0.979167 2.19583 1.45 2 2 2H12.1C12.0333 2.33333 12 2.66667 12 3C12 3.33333 12.0333 3.66667 12.1 4C12.2167 4.53333 12.4083 5.02917 12.675 5.4875C12.9417 5.94583 13.2667 6.35 13.65 6.7L10 9L2 4V6L10 11L15.275 7.7C15.5583 7.8 15.8417 7.875 16.125 7.925C16.4083 7.975 16.7 8 17 8C17.5333 8 18.0583 7.91667 18.575 7.75C19.0917 7.58333 19.5667 7.33333 20 7V16C20 16.55 19.8042 17.0208 19.4125 17.4125C19.0208 17.8042 18.55 18 18 18H2Z" fill="#79747E"/>
</svg>
