<svg width="20" height="24" viewBox="0 0 20 24" fill="none" xmlns="http://www.w3.org/2000/svg">
<path d="M15.6 1.5C16.1172 1.5 16.6132 1.65804 16.9789 1.93934C17.3446 2.22064 17.55 2.60218 17.55 3V21C17.55 21.3978 17.3446 21.7794 16.9789 22.0607C16.6132 22.342 16.1172 22.5 15.6 22.5H3.9C3.38283 22.5 2.88684 22.342 2.52114 22.0607C2.15545 21.7794 1.95 21.3978 1.95 21V3C1.95 2.60218 2.15545 2.22064 2.52114 1.93934C2.88684 1.65804 3.38283 1.5 3.9 1.5H15.6ZM3.9 0C2.86566 0 1.87368 0.316071 1.14228 0.87868C0.410892 1.44129 0 2.20435 0 3V21C0 21.7956 0.410892 22.5587 1.14228 23.1213C1.87368 23.6839 2.86566 24 3.9 24H15.6C16.6343 24 17.6263 23.6839 18.3577 23.1213C19.0891 22.5587 19.5 21.7956 19.5 21V3C19.5 2.20435 19.0891 1.44129 18.3577 0.87868C17.6263 0.316071 16.6343 0 15.6 0L3.9 0Z" fill="black"/>
<path d="M9.75005 21C10.2672 21 10.7632 20.842 11.1289 20.5607C11.4946 20.2794 11.7 19.8978 11.7 19.5C11.7 19.1022 11.4946 18.7206 11.1289 18.4393C10.7632 18.158 10.2672 18 9.75005 18C9.23288 18 8.73689 18.158 8.37119 18.4393C8.0055 18.7206 7.80005 19.1022 7.80005 19.5C7.80005 19.8978 8.0055 20.2794 8.37119 20.5607C8.73689 20.842 9.23288 21 9.75005 21Z" fill="black"/>
</svg>
