<svg width="26" height="28" viewBox="0 0 26 28" fill="none" xmlns="http://www.w3.org/2000/svg">
<path d="M8.03095 9.802C8.92875 11.8278 10.1526 13.7264 11.7026 15.4055C13.2526 17.0846 15.0051 18.4105 16.8751 19.3831C17.0359 19.4668 17.1163 19.5086 17.2181 19.5408C17.5797 19.655 18.0238 19.5729 18.3301 19.3354C18.4163 19.2685 18.49 19.1886 18.6375 19.0289C19.0884 18.5403 19.3139 18.296 19.5407 18.1363C20.3958 17.5341 21.4981 17.5341 22.3532 18.1363C22.5799 18.2961 22.8054 18.5403 23.2564 19.0289L23.5078 19.3012C24.1933 20.0439 24.5361 20.4152 24.7223 20.814C25.0926 21.6071 25.0926 22.5438 24.7223 23.3369C24.5361 23.7357 24.1933 24.107 23.5078 24.8497L23.3044 25.07C22.6213 25.8101 22.2797 26.1802 21.8152 26.4628C21.2999 26.7764 20.4995 27.0019 19.9084 27C19.3757 26.9983 19.0117 26.8863 18.2836 26.6625C14.3707 25.4593 10.6784 23.1892 7.59803 19.8521C4.51767 16.5151 2.42219 12.5151 1.31158 8.27611C1.10493 7.48734 1.0016 7.09294 1.00001 6.51588C0.998252 5.87554 1.2064 5.00844 1.49589 4.45015C1.75678 3.94703 2.09837 3.57697 2.78155 2.83686L2.98489 2.61657C3.67043 1.87391 4.01319 1.50259 4.38132 1.30087C5.11344 0.899709 5.97804 0.899709 6.71016 1.30087C7.07829 1.50258 7.42105 1.87391 8.10659 2.61657L8.35796 2.88889C8.80893 3.37745 9.03442 3.62172 9.18184 3.86736C9.7378 4.79371 9.7378 5.98793 9.18184 6.91428C9.03442 7.15992 8.80893 7.4042 8.35796 7.89275C8.2105 8.0525 8.13677 8.13237 8.07506 8.22574C7.85576 8.55753 7.78003 9.03861 7.88545 9.43039C7.91512 9.54063 7.95373 9.62776 8.03095 9.802Z" stroke="#FF6F00" stroke-width="2" stroke-linecap="round" stroke-linejoin="round"/>
</svg>
