<svg width="16" height="16" viewBox="0 0 16 16" fill="none" xmlns="http://www.w3.org/2000/svg">
<path fill-rule="evenodd" clip-rule="evenodd" d="M8.90218 5.83333H2.6665C2.39036 5.83333 2.1665 5.60948 2.1665 5.33333C2.1665 5.05719 2.39036 4.83333 2.6665 4.83333H8.90218C9.11982 4.06383 9.82732 3.5 10.6665 3.5C11.5057 3.5 12.2132 4.06383 12.4308 4.83333H13.3332C13.6093 4.83333 13.8332 5.05719 13.8332 5.33333C13.8332 5.60948 13.6093 5.83333 13.3332 5.83333H12.4308C12.2132 6.60284 11.5057 7.16667 10.6665 7.16667C9.82732 7.16667 9.11982 6.60284 8.90218 5.83333ZM9.83317 5.33333C9.83317 4.8731 10.2063 4.5 10.6665 4.5C11.1267 4.5 11.4998 4.8731 11.4998 5.33333C11.4998 5.79357 11.1267 6.16667 10.6665 6.16667C10.2063 6.16667 9.83317 5.79357 9.83317 5.33333Z" fill="white"/>
<path fill-rule="evenodd" clip-rule="evenodd" d="M7.09749 11.1667H13.3332C13.6093 11.1667 13.8332 10.9428 13.8332 10.6667C13.8332 10.3905 13.6093 10.1667 13.3332 10.1667H7.09749C6.87985 9.39716 6.17236 8.83333 5.33317 8.83333C4.49399 8.83333 3.78649 9.39716 3.56885 10.1667H2.6665C2.39036 10.1667 2.1665 10.3905 2.1665 10.6667C2.1665 10.9428 2.39036 11.1667 2.6665 11.1667H3.56885C3.78649 11.9362 4.49399 12.5 5.33317 12.5C6.17236 12.5 6.87985 11.9362 7.09749 11.1667ZM4.49984 10.6667C4.49984 10.2064 4.87293 9.83333 5.33317 9.83333C5.79341 9.83333 6.1665 10.2064 6.1665 10.6667C6.1665 11.1269 5.79341 11.5 5.33317 11.5C4.87293 11.5 4.49984 11.1269 4.49984 10.6667Z" fill="white"/>
</svg>
